<?xml version="1.0" standalone="no"?>
<!DOCTYPE svg PUBLIC "-//W3C//DTD SVG 20010904//EN"
 "http://www.w3.org/TR/2001/REC-SVG-20010904/DTD/svg10.dtd">
<svg version="1.0" xmlns="http://www.w3.org/2000/svg"
 width="1024.000000pt" height="1024.000000pt" viewBox="0 0 1024.000000 1024.000000"
 preserveAspectRatio="xMidYMid meet">
<metadata>
Created by potrace 1.11, written by Peter Selinger 2001-2013
</metadata>
<g transform="translate(0.000000,1024.000000) scale(0.100000,-0.100000)"
fill="#000000" stroke="none">
<path d="M3909 10236 c-4 -4 -73 -17 -96 -19 -7 0 -13 -4 -13 -9 0 -4 -8 -8
-18 -8 -24 0 -127 -54 -176 -93 -48 -37 -136 -128 -136 -139 0 -4 -8 -17 -17
-27 -29 -32 -39 -45 -79 -107 -21 -32 -42 -61 -45 -64 -3 -3 -16 -24 -29 -47
-13 -24 -28 -43 -32 -43 -5 0 -7 -4 -3 -9 3 -5 -2 -16 -10 -24 -8 -9 -15 -20
-15 -26 0 -6 -4 -11 -10 -11 -5 0 -10 -4 -10 -9 0 -5 -25 -53 -56 -107 -50
-88 -196 -381 -236 -474 -18 -41 -67 -156 -78 -185 -49 -122 -72 -185 -100
-270 -17 -55 -34 -107 -37 -115 -9 -22 -9 -21 -17 -63 -10 -47 -7 -45 -96 -62
-37 -7 -84 -17 -95 -19 -45 -10 -74 -16 -95 -20 -25 -5 -123 -29 -190 -46 -19
-5 -67 -18 -105 -30 -39 -11 -80 -22 -92 -24 -12 -3 -31 -10 -42 -16 -12 -6
-21 -8 -21 -4 0 3 -6 2 -12 -4 -7 -6 -17 -11 -23 -11 -62 -6 -355 -136 -422
-187 -17 -13 -36 -24 -42 -24 -17 0 -137 -123 -155 -160 -24 -47 -28 -131 -9
-180 9 -21 39 -63 67 -94 51 -54 208 -161 253 -172 13 -4 23 -10 23 -15 0 -5
3 -8 8 -7 8 1 24 -5 87 -33 70 -30 295 -107 365 -124 8 -2 60 -15 115 -30 55
-15 109 -28 120 -30 11 -2 49 -10 85 -18 36 -9 77 -18 92 -21 15 -2 32 -7 37
-10 13 -8 21 -46 9 -46 -5 0 -6 -5 -2 -11 4 -6 8 -41 9 -78 4 -86 15 -213 20
-221 2 -3 6 -26 10 -50 3 -25 15 -83 26 -130 11 -47 21 -94 23 -105 5 -30 82
-256 106 -311 12 -27 51 -110 88 -184 37 -74 68 -137 70 -141 2 -3 -9 -9 -23
-11 -14 -3 -25 -2 -25 2 0 4 -20 4 -45 0 -25 -4 -45 -4 -45 0 0 4 -20 4 -43 0
-24 -3 -51 -4 -61 0 -9 3 -45 3 -80 0 -35 -3 -77 -3 -92 0 -16 3 -42 3 -59 0
-16 -3 -49 -3 -73 1 -23 3 -42 2 -42 -3 0 -5 -4 -6 -10 -3 -5 3 -36 6 -67 5
-73 -1 -81 -1 -118 -1 -16 1 -39 1 -50 1 -81 -1 -102 -1 -115 0 -8 0 -26 0
-40 -1 -14 0 -32 0 -40 0 -59 3 -169 -3 -207 -12 -28 -7 -84 -36 -101 -53 -7
-7 -21 -19 -32 -27 -23 -16 -75 -111 -86 -157 -18 -79 -6 -136 58 -288 35 -81
61 -150 60 -154 -1 -5 3 -8 8 -8 6 0 10 -7 10 -15 0 -8 4 -23 10 -33 5 -9 19
-39 30 -67 12 -27 28 -66 37 -85 8 -19 22 -51 30 -70 8 -19 22 -48 31 -65 9
-16 16 -32 15 -35 -1 -5 6 -22 40 -100 5 -14 11 -28 11 -32 1 -4 6 -12 13 -19
6 -6 9 -18 6 -25 -3 -8 0 -14 6 -14 6 0 11 -9 11 -20 0 -11 4 -20 10 -20 5 0
9 -3 8 -7 0 -5 2 -17 6 -28 5 -11 10 -27 14 -35 3 -8 4 -18 4 -22 -1 -5 2 -8
7 -8 5 0 12 -13 16 -30 4 -16 11 -32 16 -35 5 -4 9 -15 9 -26 0 -10 4 -19 10
-19 5 0 7 -7 4 -15 -4 -8 -1 -15 5 -15 6 0 11 -6 11 -13 0 -8 6 -27 14 -43 8
-16 16 -34 18 -40 2 -7 -46 -44 -107 -84 -97 -64 -207 -144 -242 -175 -6 -5
-37 -32 -69 -60 -116 -99 -270 -260 -353 -370 -17 -22 -40 -50 -51 -62 -11
-13 -17 -23 -13 -23 4 0 1 -6 -7 -13 -27 -22 -147 -214 -200 -322 -14 -27 -28
-52 -32 -53 -5 -2 -8 -9 -8 -16 0 -7 -6 -26 -14 -42 -18 -35 -58 -125 -62
-139 -2 -5 -21 -62 -43 -125 -47 -138 -81 -266 -96 -365 -3 -16 -7 -41 -10
-55 -3 -14 -8 -43 -11 -65 -3 -22 -8 -56 -11 -75 -3 -19 -7 -316 -9 -660 -3
-654 -2 -667 41 -801 16 -50 73 -177 85 -189 3 -3 19 -25 35 -50 70 -105 238
-246 350 -295 22 -9 49 -21 60 -26 11 -5 54 -19 95 -31 l75 -23 3705 -2 c2423
-2 3722 1 3755 8 28 5 57 11 65 12 8 1 20 5 25 9 6 3 26 9 45 13 19 4 40 11
45 15 6 4 27 13 48 19 20 7 37 17 37 22 0 5 9 9 20 9 11 0 20 5 20 10 0 6 4
10 9 10 41 0 213 159 282 260 46 67 104 181 107 210 0 3 5 17 11 33 11 29 16
51 31 137 12 68 11 1156 -1 1260 -5 41 -11 99 -15 129 -3 30 -8 64 -10 75 -2
12 -6 35 -9 51 -3 17 -10 51 -16 76 -6 26 -12 53 -13 60 -2 8 -5 21 -9 29 -3
8 -13 44 -22 80 -14 55 -64 201 -94 275 -34 83 -166 336 -213 407 -32 48 -58
92 -58 97 0 5 -3 11 -7 13 -5 2 -37 41 -73 88 -36 47 -76 98 -90 115 -59 70
-282 286 -360 348 -47 38 -93 75 -102 82 -10 8 -18 11 -18 7 0 -4 -4 -2 -8 4
-8 12 -109 84 -118 84 -3 0 -12 7 -21 15 -13 14 -13 20 -2 48 8 18 13 35 11
40 -1 4 2 7 8 7 5 0 10 6 10 13 0 6 27 82 59 167 33 85 89 232 125 325 35 94
70 184 77 200 7 17 13 32 14 35 7 30 29 87 36 95 5 5 9 17 9 26 0 10 7 30 14
46 8 15 34 78 56 138 23 61 46 123 52 139 15 38 14 166 -1 195 -7 12 -14 31
-16 41 -4 19 -31 54 -75 97 -41 41 -124 74 -196 79 -37 2 -69 6 -73 8 -3 2
-15 0 -25 -4 -11 -3 -37 -4 -57 0 -21 4 -43 4 -50 0 -6 -4 -24 -4 -39 0 -15 4
-33 4 -40 0 -7 -4 -24 -4 -39 0 -14 4 -35 4 -46 0 -11 -4 -31 -4 -45 -1 -14 4
-41 4 -60 1 -19 -3 -54 -3 -77 1 -24 3 -43 2 -43 -3 0 -5 -4 -6 -10 -3 -5 3
-33 5 -62 5 -63 -1 -73 -1 -160 1 -37 0 -72 -2 -78 -6 -5 -3 -10 -2 -10 3 0 5
-17 6 -40 2 -22 -4 -40 -4 -40 0 0 4 -18 4 -40 0 -22 -4 -43 -3 -46 1 -3 5 -9
7 -14 4 -13 -8 -79 -9 -86 -2 -4 4 -2 12 4 20 24 29 180 360 188 400 1 4 3 10
4 15 1 4 2 10 1 15 0 4 4 7 11 7 6 0 9 2 6 6 -3 3 5 37 19 77 14 40 26 81 29
92 3 18 16 73 19 85 10 34 16 60 20 85 28 162 37 231 38 293 1 17 5 32 10 32
6 0 5 5 0 13 -5 6 -7 23 -3 37 4 14 4 34 0 45 -8 21 4 64 17 66 4 0 15 2 23 4
8 2 29 6 46 9 18 3 78 17 135 31 57 14 118 28 134 31 17 3 37 7 45 10 17 7
240 74 255 78 6 1 21 8 35 16 14 7 26 13 28 12 4 -3 19 2 55 16 16 7 30 12 32
12 11 0 200 92 224 109 14 10 28 18 31 17 7 -1 79 53 128 98 23 22 54 64 68
93 45 90 22 186 -66 281 -16 17 -34 32 -40 32 -5 0 -10 4 -10 8 0 4 -15 16
-32 27 -18 10 -35 22 -38 26 -5 8 -160 86 -225 114 -69 30 -78 33 -165 64 -47
16 -105 35 -130 41 -25 7 -49 16 -55 20 -5 5 -14 9 -20 9 -5 0 -31 5 -56 11
-26 6 -53 13 -60 14 -8 2 -21 6 -29 9 -8 4 -26 9 -40 12 -14 2 -43 9 -65 14
-79 18 -150 33 -170 36 -11 1 -38 8 -60 14 -22 6 -53 11 -68 11 -39 0 -50 14
-71 90 -30 106 -151 441 -187 516 -10 22 -19 46 -19 52 0 7 -4 12 -10 12 -5 0
-9 3 -8 8 7 34 -341 699 -373 710 -5 2 -9 8 -9 13 0 11 -89 147 -124 190 -12
14 -32 41 -46 59 -46 61 -154 160 -177 160 -6 0 -13 4 -15 8 -5 12 -116 62
-137 62 -10 0 -21 3 -24 7 -11 10 -73 16 -167 17 -90 1 -240 -28 -240 -47 0
-6 -3 -8 -6 -5 -3 3 -137 -60 -297 -140 -161 -81 -294 -147 -297 -147 -3 -1
-26 -11 -52 -23 -66 -29 -99 -35 -223 -35 -122 -1 -163 5 -233 34 -78 33 -96
42 -114 58 -10 8 -18 12 -18 9 0 -6 -367 177 -386 193 -7 6 -17 8 -23 5 -5 -3
-11 -2 -13 2 -5 13 -115 63 -173 79 -46 13 -247 28 -256 19z m-599 -3307 c41
-5 104 -12 140 -15 36 -3 81 -7 100 -10 19 -3 60 -7 90 -9 30 -2 82 -7 115
-10 176 -18 263 -24 585 -40 311 -16 988 -22 1305 -10 308 11 531 22 623 30
113 11 160 15 237 21 44 3 96 8 115 10 19 1 58 5 85 8 136 13 172 17 190 20
11 2 50 7 86 11 60 6 66 5 64 -12 0 -10 -4 -24 -8 -30 -4 -6 -4 -14 1 -17 10
-6 9 -67 -2 -84 -4 -7 -3 -12 1 -12 5 0 9 -10 9 -21 0 -14 -19 -36 -52 -63
-45 -36 -103 -111 -96 -126 3 -7 -65 -215 -85 -259 -8 -18 -16 -39 -17 -45 -5
-26 -81 -169 -103 -194 -7 -7 -13 -17 -13 -22 0 -15 -149 -158 -173 -166 -12
-4 -25 -11 -28 -16 -3 -5 -12 -10 -20 -12 -8 -1 -25 -8 -38 -15 -31 -17 -161
-61 -161 -55 0 3 -6 2 -12 -3 -18 -10 -79 -16 -183 -16 -78 0 -110 3 -160 17
-5 1 -25 6 -43 10 -44 10 -172 75 -172 87 0 5 -6 9 -14 9 -21 0 -156 137 -203
205 -52 78 -114 199 -153 303 -34 87 -84 152 -120 152 -10 0 -21 4 -24 9 -3 5
-27 7 -53 6 -113 -7 -153 -40 -201 -165 -11 -30 -28 -73 -38 -95 -10 -22 -18
-43 -18 -47 -1 -4 -7 -13 -13 -19 -7 -7 -13 -19 -13 -25 0 -19 -113 -183 -162
-235 -129 -137 -319 -224 -483 -219 -37 1 -139 9 -175 14 -67 10 -280 96 -288
117 -2 5 -9 9 -16 9 -20 0 -119 101 -166 170 -25 36 -45 67 -45 70 -1 3 -18
39 -39 80 -20 41 -38 82 -40 90 -2 8 -8 26 -13 40 -6 14 -28 79 -48 145 -21
66 -43 128 -50 137 -6 9 -34 35 -62 57 l-50 40 1 73 c1 40 -2 79 -7 86 -6 7
-6 12 1 12 5 0 8 9 5 20 -6 23 -1 24 107 9z m3585 -2525 c-9 -38 -18 -82 -21
-99 -3 -16 -9 -46 -14 -65 -5 -19 -12 -50 -15 -67 -3 -18 -12 -63 -21 -100 -9
-38 -18 -79 -21 -93 -2 -14 -9 -45 -14 -70 -6 -25 -13 -56 -15 -70 -3 -14 -9
-41 -14 -60 -5 -19 -12 -53 -16 -74 -3 -22 -9 -49 -14 -60 -4 -12 -8 -24 -8
-29 0 -6 -13 -78 -17 -97 0 -3 -4 -14 -8 -25 -3 -11 -9 -36 -11 -55 -3 -19 -7
-44 -10 -55 -5 -20 -72 -326 -83 -375 -3 -14 -6 -29 -7 -35 -2 -5 -6 -28 -10
-50 -4 -22 -12 -53 -16 -70 -5 -16 -12 -50 -15 -75 -4 -24 -8 -47 -10 -51 -2
-3 -11 -39 -20 -80 -9 -41 -18 -83 -21 -94 -2 -11 -6 -29 -8 -40 -2 -11 -9
-40 -15 -65 -5 -25 -12 -56 -15 -70 -2 -14 -12 -59 -21 -100 -9 -41 -18 -85
-21 -97 -2 -13 -6 -33 -8 -45 -3 -13 -11 -52 -20 -88 -8 -36 -17 -76 -20 -90
-2 -14 -23 -108 -46 -210 -23 -102 -43 -196 -46 -210 -6 -35 -29 -142 -48
-225 -9 -38 -18 -81 -20 -95 -3 -14 -5 -25 -6 -25 -1 0 -3 -7 -5 -15 -4 -25
-25 -123 -31 -150 -3 -14 -7 -36 -10 -49 -3 -13 -12 -54 -20 -90 -19 -86 -22
-100 -29 -136 -14 -71 -17 -80 -26 -90 -6 -5 -9 -3 -10 8 -1 9 -2 20 -3 25 -8
30 -29 105 -42 147 -8 28 -16 59 -18 70 -1 11 -6 27 -9 35 -3 8 -12 42 -21 75
-31 125 -67 261 -73 275 -3 8 -7 24 -9 35 -2 17 -19 80 -54 205 -15 55 -111
413 -115 430 -3 14 -25 96 -62 230 -15 53 -18 66 -28 111 -2 12 -9 36 -15 54
-6 18 -13 42 -15 54 -7 32 -13 52 -24 89 -5 17 -7 32 -5 32 3 0 2 6 -3 13 -4
6 -8 17 -9 22 -1 6 -12 46 -24 90 -29 105 -40 146 -45 167 -2 10 -15 61 -30
113 l-26 95 56 91 c30 51 55 94 55 97 0 3 11 20 25 38 14 18 25 35 25 37 0 3
43 76 95 162 52 87 95 159 95 161 0 1 27 46 60 99 33 53 60 100 60 104 0 4 16
16 35 27 19 10 35 21 35 25 0 3 10 10 23 16 12 6 76 46 142 89 66 43 122 77
124 75 2 -1 7 1 10 6 3 6 44 34 91 63 47 30 106 69 132 87 26 18 50 33 53 33
3 0 11 5 18 10 22 19 119 80 127 80 5 0 10 3 12 8 4 9 96 72 106 72 4 1 25 14
47 29 22 16 41 28 43 27 1 -2 -5 -34 -13 -72z m-3484 25 c35 -23 67 -47 71
-53 4 -6 8 -8 8 -5 0 6 175 -104 215 -136 10 -8 23 -15 27 -15 5 0 14 -5 21
-11 16 -14 208 -139 213 -139 3 0 10 -5 17 -11 7 -5 75 -50 152 -99 140 -88
217 -148 209 -162 -2 -3 0 -9 6 -13 6 -3 19 -23 30 -43 12 -20 29 -50 40 -67
11 -16 23 -37 27 -45 4 -8 26 -45 50 -82 23 -38 40 -68 36 -68 -3 0 1 -8 10
-17 13 -16 67 -103 127 -208 10 -16 40 -66 67 -110 64 -105 64 -104 47 -167
-8 -29 -17 -60 -19 -69 -2 -9 -24 -92 -50 -185 -25 -93 -47 -176 -49 -184 -1
-8 -8 -35 -15 -60 -7 -25 -15 -52 -17 -60 -3 -14 -70 -265 -79 -300 -13 -48
-56 -207 -59 -220 -2 -8 -11 -42 -20 -75 -9 -33 -19 -71 -22 -85 -2 -14 -9
-39 -15 -56 -5 -17 -12 -40 -14 -50 -23 -99 -72 -270 -78 -272 -4 -2 -5 -7 -2
-11 2 -4 -4 -35 -15 -69 -10 -34 -16 -62 -13 -62 3 0 0 -7 -7 -15 -7 -8 -10
-15 -7 -15 3 0 1 -15 -4 -32 -6 -18 -12 -42 -15 -53 -2 -11 -27 -103 -55 -205
-59 -216 -57 -209 -59 -235 0 -16 -2 -17 -9 -5 -7 13 -27 87 -35 131 -1 8 -5
28 -9 44 -6 29 -11 51 -22 112 -3 16 -8 39 -12 53 -4 14 -8 30 -9 35 -1 6 -3
12 -4 15 -2 6 -6 25 -13 65 -3 17 -9 41 -12 55 -3 14 -8 39 -11 55 -3 17 -14
66 -24 110 -19 83 -36 161 -44 205 -3 14 -12 52 -20 85 -8 33 -17 76 -21 95
-11 61 -12 65 -18 90 -4 14 -9 36 -11 50 -2 14 -7 32 -10 40 -3 8 -7 29 -10
45 -2 17 -12 64 -21 105 -9 41 -19 84 -20 95 -2 11 -7 31 -10 45 -3 14 -10 43
-15 65 -4 22 -11 49 -13 60 -3 11 -15 70 -27 130 -12 61 -25 117 -28 125 -3 8
-7 24 -9 35 -4 21 -44 212 -69 325 -22 99 -24 108 -29 138 -3 15 -10 43 -15
62 -5 19 -11 52 -14 74 -4 21 -8 42 -11 46 -3 4 -7 25 -10 46 -3 22 -8 46 -11
54 -3 8 -8 29 -11 45 -7 41 -11 60 -13 60 -2 0 -10 36 -15 72 -3 18 -12 58
-20 89 -8 31 -14 59 -13 62 1 4 -1 14 -5 22 -3 8 -8 29 -11 45 -2 17 -14 73
-26 125 -12 52 -23 102 -24 110 -3 14 -18 86 -22 103 -1 4 -2 8 -4 10 -1 1 -3
11 -4 22 -2 11 -6 36 -11 55 -5 19 -9 42 -10 50 -1 8 -5 26 -8 40 -4 14 -9 36
-12 50 -2 14 -9 45 -15 70 -5 25 -12 55 -15 68 -7 31 2 28 76 -19z"/>
</g>
</svg>
